<?xml version="1.0" standalone="no"?>
<!DOCTYPE svg PUBLIC "-//W3C//DTD SVG 20010904//EN"
 "http://www.w3.org/TR/2001/REC-SVG-20010904/DTD/svg10.dtd">
<svg version="1.0" xmlns="http://www.w3.org/2000/svg"
 width="719.000000pt" height="719.000000pt" viewBox="0 0 719.000000 719.000000"
 preserveAspectRatio="xMidYMid meet">
<metadata>
Created by potrace 1.14, written by Peter Selinger 2001-2017
</metadata>
<g transform="translate(0.000000,719.000000) scale(0.100000,-0.100000)"
fill="#000000" stroke="none">
<path d="M3393 5960 c-13 -5 -23 -14 -23 -21 0 -6 7 -8 16 -5 9 3 22 6 30 6 8
0 14 7 14 15 0 17 -5 18 -37 5z"/>
<path d="M3855 5947 c-12 -7 -64 -12 -137 -13 -124 -1 -165 -12 -204 -55 -10
-11 -44 -34 -74 -49 -30 -16 -71 -44 -90 -64 -19 -19 -42 -36 -50 -36 -8 0
-29 -12 -45 -27 l-30 -28 38 -5 c24 -3 58 -21 94 -50 32 -25 73 -53 93 -62 19
-10 46 -27 60 -38 18 -14 45 -22 95 -25 38 -3 72 -9 75 -14 4 -7 109 -16 255
-22 37 -2 119 22 175 50 30 15 63 26 73 24 23 -6 67 23 67 42 0 20 26 19 34 0
6 -16 41 -21 50 -6 13 20 -6 39 -34 36 -16 -2 -32 0 -35 5 -3 5 -14 7 -25 5
-21 -4 -34 9 -42 42 -5 17 -1 23 16 25 27 4 33 40 9 67 -9 12 -21 21 -25 21
-11 0 -89 55 -133 94 -22 20 -47 36 -56 36 -9 0 -21 11 -27 25 -6 14 -17 25
-24 26 -7 0 -29 2 -48 4 -19 3 -44 -1 -55 -8z m54 -229 c9 -15 19 -28 24 -28
4 0 7 -11 7 -25 0 -19 -5 -25 -20 -25 -29 0 -78 27 -90 49 -11 22 -14 84 -4
94 10 10 65 -33 83 -65z m-404 10 c-8 -26 -34 -50 -46 -42 -15 9 -10 43 9 53
30 18 44 13 37 -11z"/>
<path d="M3351 5924 c0 -11 3 -14 6 -6 3 7 2 16 -1 19 -3 4 -6 -2 -5 -13z"/>
<path d="M3284 5913 c3 -4 1 -12 -5 -19 -17 -21 38 -31 59 -11 13 14 13 17 1
21 -31 9 -61 14 -55 9z"/>
<path d="M3250 5850 c0 -5 7 -7 15 -4 8 4 15 8 15 10 0 2 -7 4 -15 4 -8 0 -15
-4 -15 -10z"/>
<path d="M2405 5839 c-116 -28 -188 -93 -307 -274 -58 -89 -63 -99 -93 -187
-15 -40 -36 -91 -47 -113 -23 -43 -78 -118 -90 -123 -5 -2 -8 -14 -8 -27 0
-27 -19 -74 -37 -93 -26 -27 -10 -98 31 -139 36 -36 135 -76 198 -81 105 -8
137 2 219 71 93 78 161 109 254 114 39 2 81 10 94 16 19 9 25 8 36 -6 7 -10
25 -17 44 -17 17 0 42 -7 56 -16 24 -15 55 -79 55 -113 0 -21 36 -35 47 -18 3
6 8 103 10 215 2 157 0 211 -11 235 -38 89 -43 141 -22 257 14 76 31 120 66
175 36 57 24 75 -53 75 -23 1 -69 7 -101 15 -33 8 -63 12 -68 9 -5 -3 -24 1
-43 10 -42 20 -175 29 -230 15z m185 -341 c0 -6 -7 -7 -16 -4 -9 3 -18 6 -20
6 -3 0 -3 4 1 10 7 11 35 2 35 -12z m50 -378 c0 -11 -4 -20 -9 -20 -5 0 -7 9
-4 20 3 11 7 20 9 20 2 0 4 -9 4 -20z m-30 -44 c0 -2 -7 -6 -15 -10 -8 -3 -15
-1 -15 4 0 6 7 10 15 10 8 0 15 -2 15 -4z m-610 -44 c-7 -3 -16 2 -21 9 -16
25 -9 32 12 13 13 -12 16 -20 9 -22z m-49 -150 c-16 -5 -41 5 -41 17 0 7 10 6
26 -1 15 -7 21 -14 15 -16z"/>
<path d="M5160 5743 c-47 -6 -56 -17 -38 -45 15 -23 14 -25 -18 -46 -24 -16
-34 -30 -34 -48 0 -24 3 -25 27 -19 29 7 45 23 37 37 -3 4 2 8 10 8 13 0 16
-12 16 -56 0 -94 47 -139 160 -151 l60 -6 0 39 c0 29 -3 35 -12 26 -18 -18
-33 -15 -67 14 -20 16 -31 35 -31 51 0 14 -9 36 -20 50 -30 38 -26 53 15 53
41 0 110 -32 118 -55 11 -27 27 -16 27 20 0 26 -9 45 -36 75 -34 37 -40 40
-90 40 -29 0 -56 5 -59 10 -3 6 -12 9 -18 8 -7 0 -28 -3 -47 -5z m40 -98 c0
-9 -26 -5 -37 6 -6 6 -9 18 -6 26 4 11 9 10 24 -6 11 -11 19 -23 19 -26z"/>
<path d="M3130 5710 c0 -5 4 -10 9 -10 6 0 13 5 16 10 3 6 -1 10 -9 10 -9 0
-16 -4 -16 -10z"/>
<path d="M5312 5210 c-23 -5 -53 -15 -66 -22 -13 -7 -42 -23 -66 -36 -23 -13
-48 -21 -55 -18 -36 13 -147 -45 -160 -84 -3 -8 -19 -23 -36 -33 -30 -16 -31
-20 -26 -63 4 -37 1 -50 -18 -72 -30 -37 -37 -100 -13 -124 24 -24 23 -38 -4
-38 -13 0 -41 -5 -63 -11 -38 -11 -39 -12 -16 -21 13 -5 35 -20 49 -33 14 -14
33 -25 43 -25 23 0 33 -16 17 -27 -7 -4 -35 -10 -63 -13 -41 -4 -51 -9 -53
-26 -3 -22 25 -38 61 -34 9 1 17 -4 17 -9 0 -6 -8 -19 -17 -30 -38 -41 -53
-65 -44 -74 13 -13 31 0 31 22 0 10 11 23 25 29 14 6 25 15 24 19 -4 22 2 25
15 8 10 -14 11 -26 3 -52 -8 -24 -7 -39 2 -57 17 -31 56 -49 80 -36 11 5 48 7
86 3 73 -7 212 9 292 34 58 18 100 12 121 -18 29 -42 177 -12 252 51 29 24 33
32 24 47 -14 22 9 63 35 63 9 0 25 7 35 15 11 8 40 15 64 15 54 0 77 12 97 50
16 30 9 40 -13 18 -7 -7 -12 -8 -12 -4 0 5 -7 3 -15 -4 -8 -7 -15 -9 -15 -6 0
12 72 121 82 125 6 2 20 14 31 27 11 13 26 24 33 24 14 0 51 71 60 117 8 38
-21 92 -61 113 -21 11 -27 11 -43 -3 -31 -28 -55 -20 -112 39 -51 51 -67 62
-142 92 -16 7 -28 18 -28 26 0 16 -23 22 -115 32 -99 10 -281 13 -323 4z m22
-175 c14 -13 26 -30 26 -37 -1 -7 -24 -31 -52 -52 -40 -31 -54 -37 -67 -29 -9
6 -15 18 -15 26 2 18 64 117 74 117 4 0 19 -11 34 -25z"/>
<path d="M3608 4784 c-9 -9 3 -37 21 -51 9 -6 34 -15 56 -18 22 -4 47 -14 56
-22 19 -16 67 -22 71 -8 3 9 -55 53 -107 80 -34 18 -88 29 -97 19z"/>
<path d="M4688 4773 c-26 -7 -22 -30 7 -35 29 -6 35 -2 35 24 0 18 -8 20 -42
11z"/>
<path d="M2835 4707 c-5 -26 -2 -47 9 -71 9 -19 16 -50 16 -69 0 -71 46 -159
79 -150 15 4 22 -3 31 -31 6 -20 18 -36 26 -36 7 0 21 -12 31 -27 10 -16 32
-42 50 -60 25 -24 33 -28 37 -16 16 41 0 96 -50 168 -8 11 -14 25 -14 31 0 21
-84 146 -136 203 -28 31 -56 65 -62 76 -9 17 -11 15 -17 -18z"/>
<path d="M4620 4625 c0 -24 43 -39 71 -25 22 12 22 13 4 26 -26 19 -75 18 -75
-1z"/>
<path d="M4338 4403 c-16 -2 -28 -7 -28 -11 1 -15 39 -52 53 -52 8 0 34 -16
58 -35 35 -28 52 -35 81 -33 20 1 42 -3 50 -8 22 -18 169 -48 288 -60 30 -3
69 -7 85 -9 95 -13 397 -4 416 12 8 6 35 17 61 23 59 15 74 31 57 58 -16 26
-54 31 -127 19 -31 -5 -75 -10 -97 -10 -92 0 -428 15 -525 24 -58 6 -122 10
-144 9 -21 0 -49 6 -62 15 -13 8 -33 15 -45 15 -12 0 -37 11 -55 25 -18 14
-34 24 -36 24 -2 -1 -15 -4 -30 -6z"/>
<path d="M3104 4197 c-3 -9 -4 -24 0 -32 3 -8 1 -15 -4 -15 -6 0 -10 7 -10 15
0 17 -35 21 -45 5 -10 -16 16 -42 37 -37 10 3 18 1 18 -4 0 -21 16 -7 28 23
10 27 9 35 -3 47 -12 13 -15 12 -21 -2z"/>
<path d="M2875 4094 c-27 -7 -62 -20 -77 -29 -14 -8 -41 -15 -59 -15 -26 0
-30 -3 -21 -12 7 -7 12 -16 12 -20 0 -11 -67 -10 -89 1 -13 7 -27 4 -49 -9
-26 -16 -32 -26 -32 -54 0 -18 -9 -44 -20 -58 -21 -27 -12 -48 21 -48 27 0 17
-33 -19 -66 -27 -24 -35 -38 -37 -74 -5 -77 -14 -98 -38 -93 -21 4 -21 4 -3
-11 10 -8 24 -17 30 -19 6 -2 1 -15 -12 -32 -30 -38 -28 -51 9 -59 81 -16 165
17 183 72 15 43 27 49 104 58 36 4 69 13 75 21 7 8 20 23 30 34 19 21 22 45 7
54 -5 3 -7 12 -3 20 6 18 -7 19 -43 3 -22 -10 -28 -10 -39 5 -14 20 -99 24
-111 6 -5 -8 -10 -6 -16 5 -9 17 -1 83 12 91 10 6 81 -31 73 -39 -4 -3 3 -6
15 -6 23 0 30 24 11 36 -20 12 13 24 67 24 45 0 52 -3 62 -25 10 -21 15 -24
30 -16 26 14 38 31 46 64 5 21 2 29 -11 34 -10 4 -24 13 -31 20 -11 11 -9 13
12 13 14 0 27 -4 30 -8 3 -5 19 -7 35 -4 21 3 39 -3 57 -17 35 -27 42 -17 43
63 1 51 -3 63 -20 74 -21 13 -85 7 -95 -9 -10 -16 -24 -9 -34 16 -11 28 -27
30 -105 9z"/>
<path d="M2685 4090 c-9 -15 4 -30 20 -23 8 3 15 9 15 13 0 12 -29 20 -35 10z"/>
<path d="M2219 3586 c-17 -22 -34 -139 -24 -156 8 -14 45 11 45 30 0 9 4 20 9
26 5 5 11 32 15 60 5 44 4 52 -12 56 -10 3 -24 -4 -33 -16z"/>
<path d="M2070 2323 c0 -6 -12 -14 -27 -16 l-28 -4 28 -2 c15 0 27 -6 27 -13
0 -9 3 -9 11 -1 8 8 8 16 0 30 -6 10 -11 13 -11 6z"/>
<path d="M2943 2264 c-3 -9 3 -21 16 -30 25 -18 28 -49 5 -62 -13 -7 -14 -11
-4 -17 9 -5 23 4 41 26 15 19 31 31 35 27 12 -12 33 12 27 30 -10 28 -35 42
-75 42 -26 0 -41 -5 -45 -16z"/>
<path d="M2030 2106 c-19 -13 -43 -34 -52 -45 -17 -20 -17 -23 6 -73 25 -53
24 -74 -3 -95 -29 -21 0 -28 114 -27 125 2 165 8 165 27 -1 21 -45 100 -59
105 -9 3 -11 0 -6 -8 10 -16 -25 -78 -48 -84 -34 -9 -65 11 -72 46 -4 18 -14
41 -22 50 -21 23 -12 42 31 62 42 20 46 43 10 56 -14 6 -26 10 -27 10 -1 0
-18 -11 -37 -24z"/>
<path d="M2997 2124 c-15 -15 -6 -42 20 -59 27 -18 63 -21 106 -11 12 3 16 3
10 0 -25 -11 -13 -24 22 -24 42 0 105 24 105 41 0 8 -14 9 -47 4 -63 -10 -85
-9 -95 7 -4 7 -11 18 -15 25 -10 13 -95 28 -106 17z"/>
<path d="M4636 1504 c-10 -25 8 -37 43 -29 34 7 43 35 12 35 -11 0 -26 3 -34
6 -8 3 -17 -2 -21 -12z"/>
<path d="M4401 1476 c-23 -27 -6 -46 41 -46 24 0 50 5 58 10 13 8 13 11 -1 25
-23 24 -82 30 -98 11z"/>
<path d="M2276 895 c-9 -20 -30 -44 -50 -56 -69 -41 -54 -119 24 -119 l38 0
16 71 c21 91 21 139 1 139 -8 0 -21 -16 -29 -35z"/>
<path d="M2512 893 c-15 -61 -14 -93 3 -93 10 0 15 10 15 28 0 15 3 44 6 65 4
24 3 37 -4 37 -6 0 -15 -17 -20 -37z"/>
<path d="M2816 861 c-10 -11 -16 -31 -14 -48 4 -36 45 -44 72 -14 16 18 16 21
1 50 -18 36 -35 39 -59 12z"/>
<path d="M2475 705 l-30 -25 47 0 c45 0 47 1 39 22 -11 31 -21 31 -56 3z"/>
</g>
</svg>
