<?xml version="1.0" standalone="no"?>
<!DOCTYPE svg PUBLIC "-//W3C//DTD SVG 20010904//EN"
 "http://www.w3.org/TR/2001/REC-SVG-20010904/DTD/svg10.dtd">
<svg version="1.0" xmlns="http://www.w3.org/2000/svg"
 width="385.000000pt" height="385.000000pt" viewBox="0 0 385.000000 385.000000"
 preserveAspectRatio="xMidYMid meet">
<metadata>
Created by potrace 1.14, written by Peter Selinger 2001-2017
</metadata>
<g transform="translate(0.000000,385.000000) scale(0.100000,-0.100000)"
fill="#000000" stroke="none">
<path d="M1828 3795 c-2 -2 -26 -6 -53 -10 -53 -6 -98 -19 -155 -43 -19 -9
-41 -15 -47 -15 -7 0 -13 -3 -13 -6 0 -3 -15 -12 -32 -20 -18 -8 -35 -17 -38
-20 -7 -8 -45 -30 -105 -60 -39 -20 -65 -25 -115 -25 -36 1 -77 7 -90 14 -15
8 -62 14 -119 14 -108 2 -144 -11 -209 -72 -45 -43 -144 -187 -135 -196 4 -3
2 -6 -3 -6 -8 0 -37 -61 -39 -81 -1 -14 -41 -89 -47 -89 -5 0 -8 -5 -8 -11 0
-7 -12 -22 -26 -35 -14 -13 -22 -29 -19 -34 3 -6 2 -10 -3 -10 -9 0 -18 -23
-27 -72 -11 -56 98 -131 194 -133 70 -2 101 8 144 49 38 36 87 70 87 60 0 -4
7 -1 15 6 16 13 125 23 125 11 0 -3 15 -7 34 -8 19 -2 46 -7 60 -13 24 -9 26
-15 27 -67 1 -32 2 -74 4 -93 6 -67 6 -85 2 -117 -3 -20 0 -33 7 -33 7 0 7 -3
1 -8 -5 -4 -11 -20 -11 -37 -4 -66 -49 -189 -66 -179 -4 3 -8 -1 -8 -8 0 -7
-19 -29 -41 -48 -23 -19 -61 -54 -85 -77 -24 -23 -44 -40 -44 -38 0 2 -11 -7
-25 -21 -14 -14 -30 -22 -35 -19 -6 3 -10 2 -10 -3 0 -6 -11 -13 -25 -16 -14
-4 -25 -11 -25 -16 0 -6 -6 -10 -13 -10 -19 0 -77 -68 -98 -115 -13 -29 -16
-56 -13 -100 9 -119 -1 -181 -43 -247 -13 -21 -23 -42 -23 -48 0 -5 -5 -10
-12 -10 -6 0 -8 -3 -5 -7 4 -3 -4 -21 -18 -39 -14 -18 -25 -35 -25 -39 0 -14
-47 -74 -53 -68 -4 3 -7 0 -7 -8 0 -8 -13 -30 -30 -49 -16 -19 -29 -39 -30
-43 0 -4 -10 -19 -23 -33 -31 -33 -85 -124 -89 -149 -2 -11 -6 -23 -11 -26
-14 -10 -14 -94 -1 -140 32 -108 240 -247 359 -241 138 7 160 1 170 -46 3 -12
7 -31 10 -42 3 -11 8 -30 11 -43 10 -41 6 -184 -5 -206 -7 -12 -9 -26 -6 -31
3 -5 1 -11 -5 -15 -5 -3 -10 -17 -10 -31 0 -13 -4 -24 -8 -24 -4 0 -8 -9 -9
-20 -1 -11 -9 -35 -17 -52 -9 -17 -16 -35 -16 -39 0 -4 -5 -20 -12 -36 -6 -15
-12 -32 -13 -38 -1 -5 -3 -12 -4 -15 -8 -16 -14 -78 -12 -116 2 -39 77 -58
235 -59 114 -2 122 -1 160 25 23 15 56 32 74 38 29 10 73 42 57 42 -3 0 0 9 8
20 14 20 15 118 1 190 -3 19 -8 46 -10 60 -3 14 -7 32 -11 40 -3 8 -7 18 -8
23 -2 4 -4 9 -5 12 -1 3 -3 8 -5 13 -1 4 -7 19 -13 33 -10 24 -14 44 -26 119
-17 110 -34 198 -43 225 -8 23 -5 56 6 67 3 4 65 8 136 9 71 1 145 6 164 11
20 5 42 10 49 12 7 1 26 16 41 32 23 24 27 33 19 53 -10 27 -57 71 -75 71 -7
0 -13 5 -13 10 0 6 -7 10 -16 10 -8 0 -12 5 -9 10 3 6 0 10 -7 11 -12 0 24 19
48 24 27 6 124 57 124 66 0 5 9 9 20 9 10 0 24 8 29 18 6 9 11 14 11 9 0 -4
11 0 25 9 14 9 25 13 25 8 0 -4 6 -1 13 8 12 16 61 33 52 18 -3 -5 0 -14 7
-22 13 -13 18 -28 23 -58 1 -8 5 -22 8 -30 4 -8 8 -24 10 -35 2 -11 7 -27 10
-35 6 -16 16 -60 23 -97 2 -13 6 -35 9 -50 9 -43 15 -110 19 -205 3 -75 7 -91
31 -122 54 -71 190 -133 304 -139 34 -2 97 3 139 10 42 7 83 11 89 8 7 -2 13
0 13 5 0 6 8 10 19 10 30 0 40 21 25 55 -7 17 -13 27 -14 23 0 -7 -25 10 -55
39 -8 7 -16 13 -20 13 -4 0 -25 13 -48 28 -45 30 -109 62 -124 62 -15 0 -44
36 -36 43 3 4 0 7 -7 7 -7 0 -10 3 -7 7 4 3 2 12 -4 20 -6 7 -9 13 -5 13 3 0
1 11 -4 25 -17 45 -21 78 -20 175 2 128 11 248 25 320 3 14 8 39 10 55 6 37
13 70 15 70 1 0 3 23 6 50 4 51 11 90 15 90 1 0 3 37 4 83 2 50 -1 82 -7 82
-7 0 -7 4 -1 13 6 6 9 20 8 30 -2 9 0 17 4 17 5 0 7 26 5 58 -3 52 -10 97 -14
97 -2 0 -4 40 -11 223 -2 46 -7 86 -11 88 -26 16 2 57 42 62 65 9 193 2 206
-10 3 -4 17 -3 30 2 14 6 26 6 29 0 4 -6 13 -7 24 -1 10 6 23 6 31 1 8 -5 17
-7 21 -5 3 3 40 7 81 10 41 3 85 8 99 10 13 3 44 8 69 11 51 7 168 51 188 71
13 13 24 15 70 16 12 0 22 4 22 8 0 5 5 9 11 9 6 0 35 25 65 55 30 30 57 55
59 55 3 0 14 8 24 18 34 31 51 43 51 37 0 -2 14 10 31 28 28 29 48 63 55 94 1
6 17 33 35 59 31 46 51 134 29 134 -5 0 -11 9 -15 19 -7 23 -92 88 -160 121
-27 14 -52 27 -55 30 -5 5 -18 9 -45 14 -5 1 -21 8 -35 16 -14 7 -25 12 -25
10 0 -3 -29 6 -65 19 -97 36 -127 69 -107 121 13 37 16 82 5 108 -6 15 -12 30
-12 34 -1 10 -53 48 -65 48 -6 0 -11 5 -11 10 0 6 -6 10 -13 10 -8 0 -24 12
-38 26 -32 35 -104 70 -184 90 -19 4 -70 15 -100 21 -39 7 -47 9 -65 16 -18 6
-114 21 -215 32 -16 2 -30 4 -30 5 0 1 -13 3 -30 5 -16 2 -52 6 -80 10 -54 7
-391 16 -397 10z"/>
</g>
</svg>
